<svg xmlns="http://www.w3.org/2000/svg" viewBox="-8 -8 160 160" role="img" aria-label="Transcendent Enterprise logo">
  <g fill="#FFFFFF">
    <path d="M101.144531 84.300781 L 76.195312 84.300781 L 67.6875 92.785156 L 37.832031 92.785156 L 46.214844 84.300781 L 15.300781 84.300781 L 37.457031 62.519531 L 122.90625 62.519531 Z"/>
    <path d="M63.011719 97.460938 L 62.816406 97.460938 L 57.15625 103.121094 L 27.738281 103.121094 L 33.335938 97.460938 L 33.191406 97.460938 L 33.53125 97.144531 L 63.332031 97.144531 Z"/>
    <path d="M46.316406 113.917969 L 17.054688 113.917969 L 23.417969 107.484375 L 52.777344 107.484375 Z"/>
  </g>
  <path fill="#1E6DB6" fill-rule="nonzero" d="M 101.144531 84.300781 L 76.195312 84.300781 L 67.6875 92.785156 L 37.832031 92.785156 L 46.214844 84.300781 L 15.300781 84.300781 L 37.457031 62.519531 L 122.90625 62.519531 Z M 63.011719 97.460938 L 62.816406 97.460938 L 57.15625 103.121094 L 27.738281 103.121094 L 33.335938 97.460938 L 33.191406 97.460938 L 33.53125 97.144531 L 63.332031 97.144531 Z M 46.316406 113.917969 L 17.054688 113.917969 L 23.417969 107.484375 L 52.777344 107.484375 Z M 111.128906 0.0664062 L 0 0.0664062 L 0 111.277344 C 0.5 116.679688 2.21875 121.734375 4.878906 126.175781 L 12.757812 118.28125 L 41.972656 118.28125 L 20.0625 140.175781 C 24.816406 142.511719 30.167969 143.832031 35.835938 143.832031 L 143.980469 143.832031 L 143.980469 35.867188 C 143.980469 17.164062 129.464844 1.667969 111.128906 0.0664062 "/>
</svg>
